<svg width="24" height="24" viewBox="0 0 24 24" fill="none" xmlns="http://www.w3.org/2000/svg">
<path d="M23.6484 5.8786H0.351562V20.3977H23.6484V5.8786Z" fill="#806749"/>
<path d="M23.6486 5.8786H20.5645V7.93955H23.6486V5.8786Z" fill="#6A563D"/>
<path d="M23.6486 18.3568H20.5645V20.4177H23.6486V18.3568Z" fill="#6A563D"/>
<path d="M3.43561 5.8786H0.351562V7.93955H3.43561V5.8786Z" fill="#6A563D"/>
<path d="M3.43561 18.3568H0.351562V20.4177H3.43561V18.3568Z" fill="#6A563D"/>
<path d="M20.564 5.8786H3.43546V20.3977H20.564V5.8786Z" fill="#A78967"/>
<path d="M20.564 5.8786H3.43546V7.93955H20.564V5.8786Z" fill="#957755"/>
<path d="M20.564 18.3568H3.43546V20.4177H20.564V18.3568Z" fill="#957755"/>
<path d="M12 17.4417C14.325 17.4417 16.2098 15.5569 16.2098 13.2319C16.2098 10.9068 14.325 9.02203 12 9.02203C9.67497 9.02203 7.79016 10.9068 7.79016 13.2319C7.79016 15.5569 9.67497 17.4417 12 17.4417Z" fill="#317E46"/>
<path d="M8.6077 2.98138V5.88013H9.96496V4.30481H14.035V5.88013H15.3923V2.98138H8.6077Z" fill="#57565C"/>
<path d="M9.96493 4.89703H8.60767V5.87991H9.96493V4.89703Z" fill="#2E2E30"/>
<path d="M15.3921 4.89703H14.0349V5.87991H15.3921V4.89703Z" fill="#2E2E30"/>
<path d="M4.81121 4.69781H2.06012V5.88047H4.81121V4.69781Z" fill="#FECE00"/>
<path d="M21.9398 4.69781H19.1888V5.88047H21.9398V4.69781Z" fill="#FECE00"/>
<path d="M12 16.6919C13.9109 16.6919 15.4601 15.1428 15.4601 13.2319C15.4601 11.3209 13.9109 9.77179 12 9.77179C10.089 9.77179 8.53992 11.3209 8.53992 13.2319C8.53992 15.1428 10.089 16.6919 12 16.6919Z" fill="#94D6A8"/>
<path d="M24 5.52707H22.2915V4.34596H18.8373V5.52703H15.7439V2.62982H8.25614V5.52712H5.16277V4.34596H1.70855V5.52703H0V20.749H3.08405V21.3702H4.88658V20.749H19.1134V21.3702H20.916V20.749H24V5.52707ZM19.5404 5.04909H21.5883V5.52703H19.5404V5.04909ZM8.95927 3.3329H15.0407V5.52707H14.3866V3.95324H9.61341V5.52703H8.95927V3.3329ZM13.6835 5.52707H10.3165V4.65637H13.6835V5.52707ZM2.41163 5.04909H4.45959V5.52703H2.41163V5.04909ZM0.703125 6.2302H1.7085V6.2317H3.08405V20.0459H0.703125V6.2302ZM4.88658 20.0459H3.78717V6.2317H5.16277V6.2302H8.25614V6.2317H10.3165V6.2302H13.6835V6.2317H15.7439V6.2302H18.8372V6.2317H20.2128V20.0459H19.1134H4.88658ZM23.2969 20.0459H20.916V6.2317H22.2915V6.2302H23.2969V20.0459Z" fill="black"/>
<path d="M12 8.67017C9.48468 8.67017 7.43835 10.7165 7.43835 13.2318C7.43835 15.7471 9.48468 17.7934 12 17.7934C14.5153 17.7934 16.5616 15.7471 16.5616 13.2318C16.5616 10.7165 14.5153 8.67017 12 8.67017ZM12 17.0903C9.87239 17.0903 8.14148 15.3594 8.14148 13.2318C8.14148 11.1042 9.87243 9.37329 12 9.37329C14.1276 9.37329 15.8585 11.1042 15.8585 13.2318C15.8585 15.3594 14.1276 17.0903 12 17.0903Z" fill="black"/>
<path d="M13.2991 13.3326C13.18 13.2358 13.0347 13.1551 12.8632 13.0905C12.7077 13.032 12.5358 12.977 12.349 12.9251V11.8555C12.3579 11.8576 12.3669 11.8592 12.3758 11.8615C12.5009 11.8939 12.617 11.9332 12.7239 11.9796C12.8308 12.026 12.9217 12.0734 12.9964 12.1219C13.0711 12.1703 13.1225 12.2087 13.1508 12.2368L13.5201 11.5588C13.3303 11.4297 13.1084 11.3177 12.8541 11.2228C12.6952 11.1635 12.5268 11.1228 12.349 11.1005V10.4167H11.6459V11.1117C11.564 11.1258 11.4844 11.1445 11.4072 11.1683C11.2175 11.2268 11.051 11.3127 10.9078 11.4256C10.7645 11.5386 10.6524 11.6799 10.5718 11.8494C10.491 12.0189 10.4507 12.2126 10.4507 12.4305C10.4507 12.596 10.4759 12.7384 10.5263 12.8573C10.5768 12.9764 10.6524 13.0813 10.7534 13.1721C10.8542 13.263 10.9804 13.3416 11.1318 13.4082C11.2776 13.4724 11.4494 13.5318 11.6459 13.5866V14.6549C11.633 14.6519 11.6199 14.6495 11.6071 14.6463C11.4496 14.606 11.3063 14.5565 11.1772 14.498C11.048 14.4395 10.936 14.381 10.8412 14.3224C10.7463 14.264 10.6808 14.2165 10.6444 14.1801L10.2751 14.9006C10.5253 15.0782 10.8079 15.2154 11.1227 15.3122C11.2959 15.3655 11.4703 15.4036 11.6459 15.4276V16.1298H12.349V15.4434C12.4627 15.432 12.5737 15.414 12.6816 15.388C12.8733 15.3416 13.0428 15.2679 13.1902 15.167C13.3374 15.0662 13.4545 14.9339 13.5413 14.7704C13.628 14.607 13.6715 14.4102 13.6715 14.1801C13.6715 13.9825 13.6391 13.816 13.5746 13.6807C13.5099 13.5456 13.4181 13.4295 13.2991 13.3326ZM11.5585 12.6727C11.4778 12.6284 11.4163 12.5769 11.3739 12.5184C11.3315 12.4599 11.3103 12.3862 11.3103 12.2974C11.3103 12.1441 11.3668 12.025 11.4798 11.9402C11.5254 11.906 11.5811 11.879 11.6459 11.8587V12.7151C11.6147 12.7013 11.5851 12.6874 11.5585 12.6727ZM12.349 14.6872V13.8021C12.3953 13.8206 12.4392 13.8395 12.4788 13.8593C12.5756 13.9077 12.6503 13.9643 12.7028 14.0288C12.7552 14.0934 12.7815 14.1721 12.7815 14.2649C12.7815 14.498 12.6369 14.6385 12.349 14.6872Z" fill="black"/>
<path d="M7.00995 19.0355H4.1712V19.7386H7.00995V19.0355Z" fill="#EDE6DE"/>
<path d="M8.19855 19.0355H7.47232V19.7386H8.19855V19.0355Z" fill="#EDE6DE"/>
<path d="M23.014 8.97489H22.3108V7.2085H21.8462V6.50537H23.014V8.97489Z" fill="#EDE6DE"/>
<path d="M23.0137 9.50488H22.3106V10.4166H23.0137V9.50488Z" fill="#EDE6DE"/>
<path d="M18.1345 6.50537H15.3286V7.2085H18.1345V6.50537Z" fill="#EDE6DE"/>
</svg>
